{"title":"Golmaal 3 - DVDRip - XviD - 1CDRip - Team B.S.Z","uid":6034226,"size":731555840,"categoryP":"video","categoryS":"movies","magnet":"?xt=urn:btih:bce3c8de3ab5c13e92527bffa16e5294e2d2ee5f&amp;dn=Golmaal+3+-+DVDRip+-+XviD+-+1CDRip+-+Team+B.S.Z&amp;tr=udp%3A%2F%2Ftracker.openbittorrent.com%3A80&amp;tr=udp%3A%2F%2Fopen.demonii.com%3A1337&amp;tr=udp%3A%2F%2Ftracker.coppersurfer.tk%3A6969&amp;tr=udp%3A%2F%2Fexodus.desync.com%3A6969","seeders":3,"leechers":2,"uploader":"TeamB.S.Z","files":1,"time":1292181124,"description":"::Video Specification::\n\nVideo\nID                               : 0\nFormat                           : MPEG-4 Visual\nFormat profile                   : Advanced \nFormat settings, BVOP            : Yes\nFormat settings, QPel            : No\nFormat settings, GMC             : No warppoints\nFormat settings, Matrix          : Custom\nCodec ID                         : XVID\nCodec ID/Hint                    : XviD\nDuration                         : 2h 20mn\nBit rate                         : 595 Kbps\nWidth                            : 608 pixels\nHeight                           : 256 pixels\nDisplay aspect ratio             : 2.35:1\nFrame rate                       : 23.976 fps\nColor space                      : YUV\nChroma subsampling               : 4:2:0\nBit depth                        : 8 bits\nScan type                        : Progressive\nCompression mode                 : Lossy\nBits/(Pixel*Frame)               : 0.160\nStream size                      : 597 MiB (86%)\nWriting library                  : XviD 1.2.1 (UTC 2008-12-04\n::Audio Specification::\n \nAudio\nID                               : 1\nFormat                           : MPEG Audio\nFormat profile                   : Layer 3\nMode                             : Joint stereo\nMode extension                   : MS Stereo\nCodec ID                         : 55\nCodec ID/Hint                    : MP3\nDuration                         : 2h 20mn\nBit rate mode                    : Variable\nBit rate                         : 90.6 Kbps\nNominal bit rate                 : 96.0 Kbps\nChannel(s)                       : 2 channels\nSampling rate                    : 32.0 KHz\nCompression mode                 : Lossy\nStream size                      : 90.8 MiB (13%)\nAlignment                        : Aligned on interleaves\nInterleave, duration             : 36 ms (0.86 video frame)Interleave, preload duration     : 216 ms\nWriting library                  : LAME3.98r\nEncoding settings                : -m j -V 4 -q 2 -lowpass 15.1 --abr 96[\n\n\nScreen Shotz\n\n\n\n\n\n\n \n","torrent":{"xt":"urn:btih:bce3c8de3ab5c13e92527bffa16e5294e2d2ee5f","amp;dn":"Golmaal+3+-+DVDRip+-+XviD+-+1CDRip+-+Team+B.S.Z","amp;tr":["udp%3A%2F%2Ftracker.openbittorrent.com%3A80","udp%3A%2F%2Fopen.demonii.com%3A1337","udp%3A%2F%2Ftracker.coppersurfer.tk%3A6969","udp%3A%2F%2Fexodus.desync.com%3A6969"],"infoHash":"bce3c8de3ab5c13e92527bffa16e5294e2d2ee5f","infoHashBuffer":{"type":"Buffer","data":[188,227,200,222,58,181,193,62,146,82,123,255,161,110,82,148,226,210,238,95]},"announce":[],"urlList":[]}}